# xmcd CD database file
#
# Track frame offsets:
#	150
#	12924
#	30240
#	45530
#	59273
#	75087
#	97379
#	115444
#	130654
#	150618
#	175319
#	200883
#	222950
#	233416
#	252372
#	266394
#	282164
#
# Disc length: 3909 seconds
#
# Revision: 0
# Processed by: cddbd v1.5.2PL0 Copyright (c) Steve Scherf et al.
# Submitted via: CDex 1.51
#
DISCID=e10f4311
DTITLE=Various Artist - Hot Salsa CD1
DYEAR=2007
DGENRE=Salsa
TTITLE0=SLF - La Boomba Baby
TTITLE1=Julia feat. DJ Hector - Movin' Like That
TTITLE2=SLF - If You Want It I Got It
TTITLE3=Florypiedra - Danza Salvame
TTITLE4=Simen Fjeld - I'm On Fire
TTITLE5=Alandras Brown and Frank Unzueta - Never Never
TTITLE6=One World - Mi Amor
TTITLE7=Bandidos De Amor - Mi Novia
TTITLE8=Josh Cruze - Muy Gusta!
TTITLE9=One World - Esperando
TTITLE10=Los Latin Soul - Quiero Mi Salsa
TTITLE11=Francisco Paul - R U Ready?
TTITLE12=DKO - Quench Me!
TTITLE13=Charles Vaughn - Sociedad Libre (Free Society)
TTITLE14=Mark Kaye - La Pistola
TTITLE15=Mark Kaye - Love Affair
TTITLE16=Nick Kepics Big Band - Sambolita
EXTD=YEAR: 2007
EXTT0=
EXTT1=
EXTT2=
EXTT3=
EXTT4=
EXTT5=
EXTT6=
EXTT7=
EXTT8=
EXTT9=
EXTT10=
EXTT11=
EXTT12=
EXTT13=
EXTT14=
EXTT15=
EXTT16=
PLAYORDER=
